#!OML:ASF E:\motion texture\Top Level 1\Subject 1\Session 1\male.ASF
:FULLY-SPECIFIED
:DEGREES
607
root -2.91497 17.865 4.54886 481.927 -81.2364 -475.839
lowerback -3.24589 1.83081 10.7036
upperback -4.78342 2.17264 2.73948
thorax -2.89247 0.701116 -3.09743
lowerneck -1.21278 -4.31422 -8.26738
upperneck -27.7031 -5.18434 12.2012
head -7.66945 -3.2337 5.91528
rclavicle -1.73937e-015 7.11649e-014
rhumerus 62.6455 -8.24335 -66.3289
rradius 76.9037
rwrist -12.6826
rhand -21.9953 -21.3146
rfingers 7.12502
rthumb 4.41329 -51.2486
lclavicle -1.73937e-015 7.11649e-014
lhumerus 5.49993 -19.1163 68.7223
lradius 80.1984
lwrist -14.3122
lhand -17.7598 16.0291
lfingers 7.12502
lthumb 8.50218 45.8379
rfemur 1.08034 0.462739 32.0576
rtibia 19.9434
rfoot -15.4062 -12.9873
rtoes 2.05402
lfemur -28.4349 -0.77498 -7.66538
ltibia 18.5326
lfoot -3.08364 6.37092
ltoes -13.2782
608
root -3.0756 17.8522 4.54877 483.503 -81.1979 -477.468
lowerback -3.26135 1.81307 10.5522
upperback -4.77385 2.14916 2.72401
thorax -2.87918 0.695628 -3.03051
lowerneck -1.035 -4.24801 -8.26177
upperneck -28.1186 -5.10869 12.2495
head -7.84981 -3.2159 5.96395
rclavicle -5.96354e-016 -6.0033e-014
rhumerus 62.7378 -8.42599 -65.3489
rradius 77.2637
rwrist -11.5941
rhand -22.3711 -21.1695
rfingers 7.12502
rthumb 4.05047 -51.1107
lclavicle -5.96354e-016 -6.0033e-014
lhumerus 6.61945 -18.9869 67.5511
lradius 80.8904
lwrist -14.3408
lhand -17.9249 15.9731
lfingers 7.12502
lthumb 8.34286 45.7884
rfemur 1.0837 0.311057 31.7995
rtibia 20.9633
rfoot -15.3112 -12.7239
rtoes 1.05478
lfemur -28.3092 -0.940337 -7.80441
ltibia 18.2027
lfoot -2.89828 6.3717
ltoes -12.8
609
root -3.23702 17.8407 4.54948 485.062 -81.1697 -479.092
lowerback -3.26924 1.79056 10.3845
upperback -4.76401 2.12089 2.70745
thorax -2.87073 0.688144 -2.95597
lowerneck -0.863666 -4.18134 -8.25478
upperneck -28.5194 -5.03286 12.2931
head -8.02564 -3.19742 6.01016
rclavicle 1.63003e-014 -5.1684e-015
rhumerus 62.8306 -8.61596 -64.3834
rradius 77.5944
rwrist -10.53
rhand -22.7172 -21.0345
rfingers 7.12502
rthumb 3.71618 -50.9819
lclavicle 1.63003e-014 -5.1684e-015
lhumerus 7.81949 -18.8229 66.3321
lradius 81.5431
lwrist -14.3464
lhand -18.0898 15.9306
lfingers 7.12502
lthumb 8.18369 45.7521
rfemur 1.04784 0.148101 31.5099
rtibia 22.0517
rfoot -15.1545 -12.4693
rtoes 0.0972894
lfemur -28.1619 -1.10253 -7.97462
ltibia 17.9578
lfoot -2.72216 6.34761
ltoes -12.2878
610
root -3.39908 17.8303 4.55085 486.597 -81.1484 -480.704
lowerback -3.26875 1.76346 10.204
upperback -4.75483 2.0881 2.69075
thorax -2.86843 0.67857 -2.87481
lowerneck -0.695757 -4.11528 -8.24022
upperneck -28.9083 -4.95952 12.3256
head -8.19849 -3.17961 6.0509
rclavicle 1.66979e-014 -1.98785e-014
rhumerus 62.9277 -8.81311 -63.4351
rradius 77.8931
rwrist -9.4967
rhand -23.037 -20.9095
rfingers 7.12502
rthumb 3.40735 -50.862
lclavicle 1.66979e-014 -1.98785e-014
lhumerus 9.09937 -18.6173 65.0681
lradius 82.1541
lwrist -14.3261
lhand -18.2572 15.9038
lfingers 7.12502
lthumb 8.0221 45.7316
rfemur 0.969683 -0.0216426 31.1959
rtibia 23.2077
rfoot -14.9387 -12.2272
rtoes -0.80054
lfemur -27.9947 -1.25629 -8.17116
ltibia 17.7961
lfoot -2.55781 6.29605
ltoes -11.7432
611
root -3.56174 17.8213 4.55289 488.107 -81.1366 -482.301
lowerback -3.26026 1.732 10.0094
upperback -4.74441 2.05092 2.67303
thorax -2.87 0.667223 -2.78722
lowerneck -0.549529 -4.04934 -8.23189
upperneck -29.2726 -4.88436 12.3635
head -8.35986 -3.1602 6.09247
rclavicle -2.23633e-014 -4.77083e-015
rhumerus 63.0346 -9.02023 -62.504
rradius 78.156
rwrist -8.50072
rhand -23.3287 -20.7923
rfingers 7.12502
rthumb 3.12567 -50.7491
lclavicle -2.23633e-014 -4.77083e-015
lhumerus 10.4652 -18.3633 63.7641
lradius 82.7174
lwrist -14.2794
lhand -18.4226 15.9001
lfingers 7.12502
lthumb 7.86247 45.7339
rfemur 0.848313 -0.20026 30.8568
rtibia 24.4284
rfoot -14.6609 -12.0017
rtoes -1.64013
lfemur -27.806 -1.4008 -8.39728
ltibia 17.7117
lfoot -2.40721 6.21565
ltoes -11.1679
612
root -3.72494 17.8138 4.55555 489.589 -81.1341 -483.883
lowerback -3.24405 1.69459 9.80115
upperback -4.73766 2.0073 2.65659
thorax -2.88072 0.652613 -2.69103
lowerneck -0.400434 -3.98069 -8.23031
upperneck -29.6194 -4.80522 12.4018
head -8.51695 -3.13787 6.13456
rclavicle 8.94531e-016 2.06736e-014
rhumerus 63.1511 -9.22954 -61.5935
rradius 78.3817
rwrist -7.54417
rhand -23.5446 -20.7095
rfingers 7.12502
rthumb 2.91714 -50.6693
lclavicle 8.94531e-016 2.06736e-014
lhumerus 11.9017 -18.0533 62.4296
lradius 83.2298
lwrist -14.2023
lhand -18.5993 15.9061
lfingers 7.12502
lthumb 7.69188 45.7462
rfemur 0.681762 -0.385871 30.4954
rtibia 25.7125
rfoot -14.3204 -11.7978
rtoes -2.41154
lfemur -27.5958 -1.53258 -8.65258
ltibia 17.7011
lfoot -2.27558 6.1047
ltoes -10.5635
